<svg xmlns="http://www.w3.org/2000/svg" xmlns:xlink="http://www.w3.org/1999/xlink" width="500" zoomAndPan="magnify" viewBox="0 0 375 374.999991" height="500" preserveAspectRatio="xMidYMid meet" version="1.0"><defs><g/><clipPath id="a6ad8b6918"><path d="M 0 146.535156 L 108.75 146.535156 L 108.75 235.785156 L 0 235.785156 Z M 0 146.535156 " clip-rule="nonzero"/></clipPath><clipPath id="fc38a576de"><rect x="0" width="249" y="0" height="96"/></clipPath></defs><g clip-path="url(#a6ad8b6918)"><path fill="#36389b" d="M 31.785156 234.796875 L 48.859375 217.722656 C 49.734375 216.847656 51.15625 216.851562 52.027344 217.722656 L 67.070312 232.765625 C 68.691406 234.386719 71.328125 234.386719 72.949219 232.765625 L 78.179688 227.539062 C 78.964844 226.753906 79.398438 225.707031 79.398438 224.597656 C 79.398438 223.484375 78.964844 222.441406 78.179688 221.65625 L 53.382812 196.859375 C 51.761719 195.242188 49.125 195.242188 47.503906 196.859375 L 20.675781 223.6875 C 19.054688 225.308594 19.054688 227.945312 20.675781 229.566406 L 25.90625 234.796875 C 26.714844 235.605469 27.78125 236.011719 28.847656 236.011719 C 29.910156 236.011719 30.976562 235.605469 31.785156 234.796875 Z M 102.058594 223.167969 L 107.285156 217.9375 C 108.070312 217.152344 108.503906 216.109375 108.503906 215 C 108.503906 213.890625 108.070312 212.84375 107.285156 212.058594 L 72.734375 177.507812 C 71.113281 175.886719 68.476562 175.886719 66.855469 177.507812 L 61.625 182.738281 C 60.007812 184.359375 60.007812 186.996094 61.625 188.617188 L 96.179688 223.167969 C 96.988281 223.980469 98.050781 224.382812 99.117188 224.382812 C 100.179688 224.382812 101.246094 223.980469 102.058594 223.167969 Z M 9.386719 216.554688 C 8.277344 216.554688 7.234375 216.125 6.449219 215.339844 L 1.21875 210.109375 C 0.433594 209.324219 0 208.28125 0 207.167969 C 0 206.058594 0.433594 205.015625 1.21875 204.230469 L 57.285156 148.160156 C 58.90625 146.539062 61.546875 146.539062 63.167969 148.160156 L 68.394531 153.390625 C 70.015625 155.011719 70.015625 157.648438 68.394531 159.269531 L 12.328125 215.339844 C 11.542969 216.125 10.5 216.554688 9.386719 216.554688 " fill-opacity="1" fill-rule="nonzero"/></g><g transform="matrix(1, 0, 0, 1, 126, 143)"><g clip-path="url(#fc38a576de)"><g fill="#36389b" fill-opacity="1"><g transform="translate(0.349671, 69.545764)"><g><path d="M 36.75 -5.390625 L 20.609375 -5.390625 L 24.03125 -15.171875 L 32.953125 -15.171875 L 19.75 -49.359375 L 35.78125 -49.359375 L 55.46875 0 L 38.84375 0 Z M 16.21875 0 L 0.328125 0 L 17.96875 -47.140625 L 25.265625 -27.53125 Z M 16.21875 0 "/></g></g><g transform="translate(56.151675, 69.545764)"><g><path d="M 7.921875 -49.359375 L 47.0625 -49.359375 L 47.0625 -9.859375 L 37.203125 0 L 30.609375 0 L 30.609375 -38.609375 L 7.921875 -38.609375 Z M 19.015625 -9.859375 L 28.015625 -9.859375 L 28.015625 0 L 11.828125 0 L 1.9375 -9.859375 L 1.9375 -20.6875 L 19.015625 -20.6875 Z M 19.015625 -9.859375 "/></g></g><g transform="translate(107.080304, 69.545764)"><g><path d="M 36.75 -5.390625 L 20.609375 -5.390625 L 24.03125 -15.171875 L 32.953125 -15.171875 L 19.75 -49.359375 L 35.78125 -49.359375 L 55.46875 0 L 38.84375 0 Z M 16.21875 0 L 0.328125 0 L 17.96875 -47.140625 L 25.265625 -27.53125 Z M 16.21875 0 "/></g></g><g transform="translate(162.882308, 69.545764)"><g><path d="M 3.609375 -10.53125 L 8.5625 -10.53125 L 8.5625 -38.875 L 3.609375 -38.875 L 3.609375 -49.359375 L 29.953125 -49.359375 L 29.953125 -38.875 L 25 -38.875 L 25 -10.53125 L 29.953125 -10.53125 L 29.953125 0 L 3.609375 0 Z M 3.609375 -10.53125 "/></g></g><g transform="translate(196.437913, 69.545764)"><g><path d="M 35.5625 -27.046875 L 26.78125 -39.875 L 32.546875 -49.359375 L 50.1875 -49.359375 Z M -0.96875 0 L 14.765625 -22.984375 L 23.578125 -9.59375 L 17.8125 0 Z M 50.890625 0 L 32.953125 0 L 0.03125 -49.359375 L 17.78125 -49.359375 Z M 50.890625 0 "/></g></g></g></g></g></svg>