<svg width="25" height="39" viewBox="0 0 25 39" fill="none" xmlns="http://www.w3.org/2000/svg">
<path d="M12.1875 7.3125C12.5107 7.3125 12.8207 7.4409 13.0493 7.66946C13.2778 7.89802 13.4062 8.20802 13.4062 8.53125V13.4062C13.4062 13.7295 13.2778 14.0395 13.0493 14.268C12.8207 14.4966 12.5107 14.625 12.1875 14.625C11.8643 14.625 11.5543 14.4966 11.3257 14.268C11.0972 14.0395 10.9688 13.7295 10.9688 13.4062V8.53125C10.9688 8.20802 11.0972 7.89802 11.3257 7.66946C11.5543 7.4409 11.8643 7.3125 12.1875 7.3125ZM21.9375 26.8125C21.9375 29.3984 20.9103 31.8783 19.0818 33.7068C17.2533 35.5353 14.7734 36.5625 12.1875 36.5625C9.60164 36.5625 7.12169 35.5353 5.29321 33.7068C3.46473 31.8783 2.4375 29.3984 2.4375 26.8125V12.1875C2.4375 9.60164 3.46473 7.12169 5.29321 5.29321C7.12169 3.46473 9.60164 2.4375 12.1875 2.4375C14.7734 2.4375 17.2533 3.46473 19.0818 5.29321C20.9103 7.12169 21.9375 9.60164 21.9375 12.1875V26.8125ZM12.1875 0C8.95517 0 5.85524 1.28404 3.56964 3.56964C1.28404 5.85524 0 8.95517 0 12.1875V26.8125C0 30.0448 1.28404 33.1448 3.56964 35.4304C5.85524 37.716 8.95517 39 12.1875 39C15.4198 39 18.5198 37.716 20.8054 35.4304C23.091 33.1448 24.375 30.0448 24.375 26.8125V12.1875C24.375 8.95517 23.091 5.85524 20.8054 3.56964C18.5198 1.28404 15.4198 0 12.1875 0Z" fill="#0F172A"/>
</svg>
