<svg xmlns="http://www.w3.org/2000/svg" xmlns:xlink="http://www.w3.org/1999/xlink" width="500" zoomAndPan="magnify" viewBox="0 0 375 374.999991" height="500" preserveAspectRatio="xMidYMid meet" version="1.0"><defs><clipPath id="e1c033884a"><path d="M 0 34 L 375 34 L 375 341.867188 L 0 341.867188 Z M 0 34 " clip-rule="nonzero"/></clipPath></defs><g clip-path="url(#e1c033884a)"><path fill="#36389b" d="M 109.855469 337.90625 L 168.863281 278.898438 C 171.882812 275.878906 176.796875 275.882812 179.8125 278.898438 L 231.804688 330.890625 C 237.40625 336.492188 246.523438 336.492188 252.121094 330.890625 L 270.195312 312.820312 C 272.910156 310.105469 274.402344 306.496094 274.402344 302.65625 C 274.402344 298.816406 272.910156 295.210938 270.195312 292.496094 L 184.496094 206.796875 C 178.898438 201.199219 169.777344 201.199219 164.175781 206.796875 L 71.460938 299.511719 C 65.859375 305.117188 65.859375 314.230469 71.460938 319.835938 L 89.53125 337.90625 C 92.335938 340.707031 96.015625 342.109375 99.695312 342.109375 C 103.375 342.109375 107.054688 340.707031 109.855469 337.90625 Z M 352.71875 297.71875 L 370.792969 279.648438 C 373.507812 276.933594 375 273.324219 375 269.488281 C 375 265.648438 373.507812 262.039062 370.792969 259.324219 L 251.382812 139.914062 C 245.78125 134.3125 236.664062 134.3125 231.058594 139.914062 L 212.988281 157.988281 C 207.386719 163.589844 207.386719 172.707031 212.988281 178.308594 L 332.398438 297.71875 C 335.199219 300.519531 338.878906 301.921875 342.558594 301.921875 C 346.238281 301.921875 349.917969 300.519531 352.71875 297.71875 Z M 32.445312 274.863281 C 28.605469 274.863281 25 273.371094 22.285156 270.65625 L 4.210938 252.585938 C 1.496094 249.867188 0.00390625 246.261719 0.00390625 242.425781 C 0.00390625 238.585938 1.496094 234.976562 4.210938 232.261719 L 197.988281 38.488281 C 203.589844 32.882812 212.707031 32.882812 218.3125 38.488281 L 236.378906 56.558594 C 241.984375 62.160156 241.984375 71.277344 236.378906 76.878906 L 42.605469 270.65625 C 39.890625 273.371094 36.285156 274.863281 32.445312 274.863281 " fill-opacity="1" fill-rule="nonzero"/></g></svg>